<?xml version="1.0" encoding="utf-8"?>
<!-- Generator: Adobe Illustrator 26.2.1, SVG Export Plug-In . SVG Version: 6.00 Build 0)  -->
<svg version="1.1" id="图层_1" xmlns="http://www.w3.org/2000/svg" xmlns:xlink="http://www.w3.org/1999/xlink" x="0px" y="0px"
	 viewBox="0 0 250 250" style="enable-background:new 0 0 250 250;" xml:space="preserve">
<style type="text/css">
	.st0{fill:#23BDF7;stroke:#FFFFFF;stroke-width:5.3519;stroke-miterlimit:7.1359;}
	.st1{fill:#D59D71;stroke:#FFFFFF;stroke-width:14.6401;stroke-miterlimit:14.6401;}
	.st2{fill:#EF81EB;stroke:#FFFFFF;stroke-width:14.6401;stroke-miterlimit:14.6401;}
	.st3{fill:#200932;stroke:#FFFFFF;stroke-width:14.6401;stroke-miterlimit:14.6401;}
	.st4{fill:#D59D71;}
	.st5{fill:#EF81EB;}
	.st6{fill:#200932;}
</style>
<path class="st0" d="M39.2,131.5c-2.4,49.2,35.5,91,84.7,93.4s91-35.5,93.4-84.7s-35.5-91-84.7-93.4C83.5,44.4,41.6,82.3,39.2,131.5
	"/>
<g transform="matrix(0.9412383230589468, -0.11174907114955444, 0.11174907114955444, 0.9412383230589468, -6.991779123104486, 99.01366050681045)">
	
		<g transform="matrix(3.411846160888672, 1.808243751525879, -1.808243751525879, 3.411846160888672, 204.68472290039062, 30.137897491455078)">
		<path class="st1" d="M-18.8,24.4c0,0,0,0.1,0,0.1c0,0,0,0.1,0,0.1l0.2-0.2L-18.8,24.4C-18.8,24.4-18.8,24.4-18.8,24.4z"/>
		<path class="st1" d="M-15.8,24.5l3.1-3.1l3.1,3.1l-3.1,3.1L-15.8,24.5z"/>
		<path class="st1" d="M-15.8,33.5l3.1-3.1l3.1,3.1l-3.1,3.1L-15.8,33.5z"/>
		<path class="st1" d="M-6.4,21.3C-6.4,21.3-6.4,21.3-6.4,21.3c0-0.1-0.1-0.2-0.1-0.2c0,0,0,0,0-0.1l-3.8,0l2.1,2.1L-6.4,21.3z"/>
		<path class="st2" d="M-24.2,6.4c0.2-0.2,0.4-0.4,0.7-0.6c0,0,0.1-0.1,0.1-0.1c0.2-0.1,0.4-0.2,0.6-0.3c0.1,0,0.2-0.1,0.3-0.1
			c0.2-0.1,0.4-0.1,0.6-0.2c0.1,0,0.2,0,0.3-0.1C-21.3,5-21,5-20.7,5c2.4,0,4.4,1.7,4.9,4l9.2,0c0.4-1.7,2-3,3.9-3
			c0.3,0,0.5,0,0.8,0.1c0.1,0,0.1,0,0.2,0.1c0.2,0,0.4,0.1,0.5,0.2c0,0,0,0,0,0C-0.9,5.2-0.7,4.1-0.7,3c0-2.9-1-5.7-2.9-7.9
			c0,0-0.1,0-0.1,0c-0.1,0-0.1,0-0.2,0C-4.1-5-4.2-5-4.4-5.1c-0.1,0-0.1,0-0.2-0.1c-0.2-0.1-0.3-0.1-0.5-0.2c0,0-0.1,0-0.1,0
			c-0.2-0.1-0.5-0.2-0.7-0.3C-7.7-6.2-10-7-12.7-7l0,1c0,1.7-1.3,3-3,3c-0.3,0-0.5,0.1-0.7,0.3c-0.2,0.2-0.3,0.4-0.3,0.7v2
			c0,1.7-1.3,3-3,3c-0.8,0-1.6-0.3-2.1-0.9c-0.6-0.5-0.9-1.3-0.9-2.1v-3.1c-0.1,0-0.2-0.1-0.3-0.1c-1.1,1.9-1.7,4-1.7,6.2
			C-24.7,4.2-24.5,5.3-24.2,6.4C-24.2,6.4-24.2,6.4-24.2,6.4z"/>
		<path class="st1" d="M-15.7,17h9v2l-9,0V17z"/>
		<path class="st2" d="M-22.8-5.3c0.3,0.2,0.7,0.3,1.1,0.3c0.6,0,1,0.4,1,1l0,4c0,0.3,0.1,0.5,0.3,0.7C-20.2,0.9-20,1-19.7,1
			c0.6,0,1-0.4,1-1v-2c0-0.8,0.3-1.6,0.9-2.1c0.5-0.6,1.3-0.9,2.1-0.9c0.6,0,1-0.4,1-1v-2c0-0.5,0.4-1,0.9-1c0.3,0,0.7,0,1.1,0
			c3.1,0,5.6,0.9,7.4,1.6c0.9,0.3,1.7,0.6,2.2,0.6c0.1,0,0.2,0,0.2,0c0,0,0.2-0.2,0.2-1.1c-0.1-0.2-0.7-0.6-1-0.7
			C-4-8.9-4.2-9-4.4-9.2L-7-10.1c-0.5-0.2-0.8-0.7-0.6-1.3c0.2-0.5,0.7-0.8,1.3-0.6l1.3,0.4c-1-3.2-4.1-5.5-7.6-5.5
			c-3.7,0-6.9,2.5-7.7,6h2.7c0.6,0,1,0.4,1,1s-0.4,1-1,1l-3.9,0c-0.9,0-1.7,0.5-1.9,1.3C-24-6.6-23.4-5.7-22.8-5.3z"/>
		<path class="st1" d="M-25.7,18c0,0.6,0.4,1,1,1v-2c-0.3,0-0.5,0.1-0.7,0.3C-25.6,17.5-25.7,17.7-25.7,18z"/>
		<path class="st1" d="M-17.2,25.9l-1.8,1.8l1.3,3.8l0.6,0.6l3.1-3.1L-17.2,25.9z"/>
		<path class="st1" d="M-16.6,21c-0.1,0.1-0.1,0.1-0.2,0.2c-0.1,0.1-0.2,0.2-0.4,0.3c-0.1,0-0.1,0.1-0.2,0.1
			c-0.1,0.1-0.3,0.1-0.5,0.2c-0.1,0-0.1,0.1-0.2,0.1c-0.1,0-0.2,0-0.3,0.1l1.1,1.1l2.1-2.1L-16.6,21C-16.5,21-16.5,21-16.6,21z"/>
		<path class="st1" d="M-0.7,17l0,2c0.3,0,0.5-0.1,0.7-0.3c0.2-0.2,0.3-0.4,0.3-0.7C0.3,17.4-0.2,17-0.7,17z"/>
		<path class="st2" d="M-0.7,14.7c0.1-0.1,0.3-0.2,0.4-0.3C0.1,14,0.3,13.5,0.3,13c0-0.6-0.3-1.2-0.7-1.5c-0.3-0.2-0.4-0.6-0.3-1
			c0-0.2,0.1-0.3,0.1-0.5c0-0.5-0.2-1.1-0.6-1.4C-1.6,8.3-2,8.1-2.3,8c-0.1,0-0.3,0-0.4,0c-1.1,0-2,0.9-2,2c0,0.6-0.4,1-1,1l-10.1,0
			c-0.2,0.8-0.6,1.6-1.1,2.3c-0.2,0.2-0.5,0.3-0.8,0.3c-0.2,0-0.5-0.1-0.7-0.2c-0.4-0.4-0.5-1-0.1-1.4c0.5-0.5,0.8-1.3,0.8-2
			c0-1.7-1.3-3-3-3c-1.2,0-2.4,0.8-2.8,1.9c-0.1,0.3-0.2,0.7-0.2,1.1c0.1,0.5-0.2,1-0.7,1.1c-0.3,0.1-0.5,0.2-0.7,0.5
			c-0.4,0.4-0.6,0.9-0.6,1.4s0.2,1,0.6,1.4c0.4,0.4,0.9,0.6,1.4,0.6c0.6,0,1,0.4,1,1v4v4c0,0.3,0.1,0.6,0.4,0.8
			c0.1,0.1,0.4,0.3,0.8,0.2c0.1,0,0.2,0,0.3-0.1c0.3-0.2,0.5-0.6,0.5-1V21v-2c0-0.6,0.4-1,1-1s1,0.4,1,1v1c0.4,0,0.7-0.2,0.9-0.5
			c0,0,0,0,0,0c0.1-0.1,0.1-0.3,0.1-0.5v-3c0-0.6,0.4-1,1-1l11,0c0.6,0,1,0.4,1,1l0,4c0,0.3,0.1,0.5,0.3,0.7
			c0.2,0.2,0.6,0.3,0.9,0.3c0.4-0.1,0.8-0.5,0.8-1c0,0,0-0.1,0-0.1v0l0-3.9l0-2c0-0.6,0.4-1,1-1s1,0.4,1,1L-0.7,14.7z M-18.8,16.4
			c0,0.1-0.1,0.2-0.2,0.3c-0.1,0.1-0.2,0.2-0.3,0.2s-0.2,0.1-0.4,0.1s-0.3,0-0.4-0.1s-0.2-0.1-0.3-0.2c-0.1-0.1-0.2-0.2-0.2-0.3
			c-0.1-0.1-0.1-0.2-0.1-0.4c0-0.3,0.1-0.5,0.3-0.7c0.2-0.2,0.6-0.3,0.9-0.3c0.1,0,0.1,0,0.2,0.1c0.1,0,0.1,0,0.2,0.1
			c0,0,0.1,0.1,0.2,0.1c0.2,0.2,0.3,0.5,0.3,0.7C-18.7,16.1-18.7,16.2-18.8,16.4z"/>
		<path class="st1" d="M-11.3,29l3.1,3.1l0.6-0.6l1.3-3.8l-1.8-1.8L-11.3,29z"/>
		<path class="st1" d="M-5,22.7l-1.8,1.8l1.1,1.1l0.9-2.8C-4.8,22.8-4.9,22.7-5,22.7C-5,22.7-5,22.7-5,22.7z"/>
		<path class="st1" d="M-10.2,39.1l1.1-3.3l-2.2,2.2L-10.2,39.1z"/>
		<path class="st1" d="M-16.3,35.8l1.1,3.3l1.1-1.1L-16.3,35.8z"/>
		<path class="st1" d="M-14.5,41.2l0.2,0.6c0.2,0.8,0.9,1.2,1.6,1.2s1.4-0.5,1.6-1.2l0.2-0.6l-1.8-1.8L-14.5,41.2z"/>
	</g>
	
		<g transform="matrix(3.411846160888672, 1.808243751525879, -1.808243751525879, 3.411846160888672, 204.68472290039062, 30.137897491455078)">
		<path class="st3" d="M1.2,15.7C1.9,14.9,2.3,14,2.3,13c0-1-0.4-1.9-1-2.7c0-0.1,0-0.2,0-0.3c0-0.9-0.3-1.7-0.8-2.4
			C1,6.1,1.3,4.6,1.3,3c0-3-1-6-2.8-8.4C-1-5.9-0.7-6.7-0.7-8c0-1.2-1.2-1.9-1.9-2.4c-0.1,0-0.1-0.1-0.2-0.1
			c-0.7-4.9-4.9-8.5-9.9-8.5c-4.8,0-8.9,3.4-9.8,8.1c-1.4,0.3-2.5,1.2-3,2.6c-0.5,1.5-0.1,3,0.8,4C-26-2.1-26.7,0.4-26.7,3
			c0,2,0.4,3.9,1.2,5.6c-0.1,0.3-0.1,0.6-0.2,0.9c-0.3,0.2-0.6,0.4-0.8,0.6c-0.8,0.8-1.2,1.8-1.2,2.8c0,1,0.4,2,1.1,2.7
			c-0.1,0.1-0.1,0.1-0.2,0.2c-0.6,0.6-0.9,1.3-0.9,2.1c0,1.7,1.3,3,3,3v3c0,0.9,0.4,1.7,1.1,2.3c0.5,0.5,1.2,0.7,1.9,0.7
			c0.1,0,0.2,0,0.3,0l2.6,7.6c0,0,0,0,0,0l2.3,6.7c0,0,0,0,0,0l0.3,1c0.5,1.6,1.9,2.6,3.5,2.6s3.1-1.1,3.5-2.6l0.4-1.1c0,0,0,0,0,0
			l2.3-6.7c0,0,0,0,0,0l4-11.8c0.8-0.3,1.4-1,1.7-1.8h0.2c0.8,0,1.6-0.3,2.1-0.9C2,19.5,2.3,18.8,2.3,18C2.3,17.1,1.9,16.2,1.2,15.7
			z M-23.6-7.7c0.3-0.8,1-1.3,1.9-1.3l3.9,0c0.6,0,1-0.4,1-1s-0.4-1-1-1h-2.7c0.9-3.5,4-6,7.7-6c3.5,0,6.6,2.3,7.6,5.5L-6.4-12
			c-0.5-0.2-1.1,0.1-1.3,0.6c-0.2,0.5,0.1,1.1,0.6,1.3l2.6,0.9C-4.2-9-4-8.9-3.7-8.7c0.3,0.2,0.8,0.5,1,0.7c0,0.9-0.2,1.1-0.2,1.1
			c0,0-0.1,0-0.2,0c-0.5,0-1.3-0.3-2.2-0.6C-7.1-8.1-9.6-9-12.7-9c-0.4,0-0.7,0-1.1,0c-0.5,0-0.9,0.5-0.9,1v2c0,0.6-0.4,1-1,1
			c-0.8,0-1.6,0.3-2.1,0.9c-0.6,0.6-0.9,1.3-0.9,2.1v2c0,0.6-0.4,1-1,1c-0.3,0-0.5-0.1-0.7-0.3c-0.2-0.2-0.3-0.4-0.3-0.7l0-4
			c0-0.6-0.4-1-1-1c-0.4,0-0.8-0.1-1.1-0.3C-23.4-5.7-24-6.6-23.6-7.7z M-23-3.2c0.1,0,0.2,0.1,0.3,0.1V0c0,0.8,0.3,1.6,0.9,2.1
			c0.6,0.6,1.3,0.9,2.1,0.9c1.7,0,3-1.3,3-3v-2c0-0.3,0.1-0.5,0.3-0.7C-16.2-2.9-16-3-15.7-3c1.7,0,3-1.3,3-3l0-1
			c2.7,0,5,0.8,6.8,1.4c0.3,0.1,0.5,0.2,0.7,0.3c0,0,0.1,0,0.1,0c0.2,0.1,0.4,0.1,0.5,0.2c0.1,0,0.1,0,0.2,0.1C-4.2-5-4.1-5-3.9-4.9
			c0.1,0,0.1,0,0.2,0c0,0,0.1,0,0.1,0c1.9,2.2,2.9,5,2.9,7.9c0,1.1-0.2,2.2-0.5,3.3c0,0,0,0,0,0c-0.2-0.1-0.3-0.1-0.5-0.2
			c-0.1,0-0.1,0-0.2-0.1C-2.2,6-2.4,6-2.7,6c-1.9,0-3.4,1.3-3.9,3l-9.2,0c-0.5-2.3-2.5-4-4.9-4c-0.3,0-0.6,0-0.9,0.1
			c-0.1,0-0.2,0-0.3,0.1c-0.2,0-0.4,0.1-0.6,0.2c-0.1,0-0.2,0.1-0.3,0.1c-0.2,0.1-0.4,0.2-0.6,0.3c0,0-0.1,0.1-0.1,0.1
			C-23.7,6-24,6.2-24.2,6.4c0,0,0,0,0,0c-0.3-1.1-0.5-2.3-0.5-3.4C-24.7,0.8-24.1-1.4-23-3.2z M-25.7,18c0-0.3,0.1-0.5,0.3-0.7
			c0.2-0.2,0.4-0.3,0.7-0.3v2C-25.3,19-25.7,18.5-25.7,18z M-22.4,24.7c-0.2-0.2-0.4-0.5-0.4-0.8v-4v-4c0-0.6-0.4-1-1-1
			c-0.5,0-1-0.2-1.4-0.6c-0.4-0.4-0.6-0.9-0.6-1.4s0.2-1,0.6-1.4c0.2-0.2,0.5-0.4,0.7-0.5c0.5-0.2,0.8-0.6,0.7-1.1
			c0-0.4,0.1-0.7,0.2-1.1C-23.1,7.8-22,7-20.7,7c1.7,0,3,1.3,3,3c0,0.7-0.3,1.4-0.8,2c-0.4,0.4-0.3,1,0.1,1.4
			c0.2,0.2,0.4,0.2,0.7,0.2c0.3,0,0.6-0.1,0.8-0.3c0.6-0.7,1-1.5,1.1-2.3l10.1,0c0.6,0,1-0.4,1-1c0-1.1,0.9-2,2-2c0.1,0,0.3,0,0.4,0
			c0.4,0.1,0.7,0.2,1,0.5c0.4,0.4,0.6,0.9,0.6,1.4c0,0.2,0,0.3-0.1,0.5c-0.1,0.4,0.1,0.7,0.3,1C0,11.8,0.3,12.4,0.3,13
			c0,0.5-0.2,1-0.6,1.4c-0.1,0.1-0.3,0.2-0.4,0.3l0-0.7c0-0.6-0.4-1-1-1s-1,0.4-1,1l0,2l0,3.9v0c0,0,0,0.1,0,0.1c0,0.5-0.4,1-0.8,1
			c-0.3,0.1-0.7,0-0.9-0.3c-0.2-0.2-0.3-0.4-0.3-0.7l0-4c0-0.6-0.4-1-1-1l-11,0c-0.6,0-1,0.4-1,1v3c0,0.2,0,0.3-0.1,0.5c0,0,0,0,0,0
			c-0.2,0.3-0.5,0.5-0.9,0.5v-1c0-0.6-0.4-1-1-1s-1,0.4-1,1v2v2.9c0,0.4-0.2,0.8-0.5,1c-0.1,0.1-0.2,0.1-0.3,0.1
			C-21.9,25-22.2,24.8-22.4,24.7z M-10.2,39.1l-1.1-1.1l2.2-2.2L-10.2,39.1z M-17.8,31.5l-1.3-3.8l1.8-1.8l3.1,3.1l-3.1,3.1
			L-17.8,31.5z M-18.8,24.4C-18.8,24.4-18.8,24.4-18.8,24.4l0.1,0.1l-0.2,0.2c0,0,0-0.1,0-0.1C-18.8,24.5-18.8,24.5-18.8,24.4z
			 M-15.8,24.5l3.1-3.1l3.1,3.1l-3.1,3.1L-15.8,24.5z M-10.3,21l3.8,0c0,0,0,0,0,0.1c0,0.1,0.1,0.1,0.1,0.2c0,0,0,0,0,0l-1.8,1.8
			L-10.3,21z M-6.7,19l-9,0v-2h9V19z M-17.8,21.8c0.2-0.1,0.3-0.1,0.5-0.2c0.1,0,0.1-0.1,0.2-0.1c0.1-0.1,0.3-0.2,0.4-0.3
			c0.1-0.1,0.1-0.1,0.2-0.2c0,0,0.1,0,0.1-0.1h1.4l-2.1,2.1l-1.1-1.1c0.1,0,0.2,0,0.3-0.1C-17.9,21.9-17.9,21.8-17.8,21.8z
			 M-16.3,35.8l2.2,2.2l-1.1,1.1L-16.3,35.8z M-15.8,33.5l3.1-3.1l3.1,3.1l-3.1,3.1L-15.8,33.5z M-7.7,31.5l-0.6,0.6l-3.1-3.1
			l3.1-3.1l1.8,1.8L-7.7,31.5z M-6.8,24.5l1.8-1.8c0,0,0,0,0,0c0.1,0,0.2,0.1,0.3,0.1l-0.9,2.8L-6.8,24.5z M-12.7,43
			c-0.7,0-1.4-0.5-1.6-1.2l-0.2-0.6l1.8-1.8l1.8,1.8l-0.2,0.6C-11.3,42.5-12,43-12.7,43z M0,18.7C-0.2,18.9-0.4,19-0.7,19l0-2
			c0.6,0,1,0.4,1,1C0.3,18.2,0.2,18.5,0,18.7z"/>
		<path class="st3" d="M-20.4,16.7c0.1,0.1,0.2,0.2,0.3,0.2s0.2,0.1,0.4,0.1s0.3,0,0.4-0.1s0.2-0.1,0.3-0.2c0.1-0.1,0.2-0.2,0.2-0.3
			s0.1-0.2,0.1-0.4c0-0.3-0.1-0.5-0.3-0.7c0,0-0.1-0.1-0.2-0.1c-0.1,0-0.1-0.1-0.2-0.1c-0.1,0-0.1,0-0.2-0.1c-0.3-0.1-0.7,0-0.9,0.3
			c-0.2,0.2-0.3,0.5-0.3,0.7c0,0.1,0,0.3,0.1,0.4C-20.6,16.5-20.5,16.6-20.4,16.7z"/>
	</g>
</g>
<g transform="matrix(0.9412383230589468, -0.11174907114955444, 0.11174907114955444, 0.9412383230589468, -6.991779123104486, 99.01366050681045)">
	
		<g transform="matrix(3.411846160888672, 1.808243751525879, -1.808243751525879, 3.411846160888672, 204.68472290039062, 30.137897491455078)">
		<path class="st4" d="M-18.8,24.4c0,0,0,0.1,0,0.1c0,0,0,0.1,0,0.1l0.2-0.2L-18.8,24.4C-18.8,24.4-18.8,24.4-18.8,24.4z"/>
		<path class="st4" d="M-15.8,24.5l3.1-3.1l3.1,3.1l-3.1,3.1L-15.8,24.5z"/>
		<path class="st4" d="M-15.8,33.5l3.1-3.1l3.1,3.1l-3.1,3.1L-15.8,33.5z"/>
		<path class="st4" d="M-6.4,21.3C-6.4,21.3-6.4,21.3-6.4,21.3c0-0.1-0.1-0.2-0.1-0.2c0,0,0,0,0-0.1l-3.8,0l2.1,2.1L-6.4,21.3z"/>
		<path class="st5" d="M-24.2,6.4c0.2-0.2,0.4-0.4,0.7-0.6c0,0,0.1-0.1,0.1-0.1c0.2-0.1,0.4-0.2,0.6-0.3c0.1,0,0.2-0.1,0.3-0.1
			c0.2-0.1,0.4-0.1,0.6-0.2c0.1,0,0.2,0,0.3-0.1C-21.3,5-21,5-20.7,5c2.4,0,4.4,1.7,4.9,4l9.2,0c0.4-1.7,2-3,3.9-3
			c0.3,0,0.5,0,0.8,0.1c0.1,0,0.1,0,0.2,0.1c0.2,0,0.4,0.1,0.5,0.2c0,0,0,0,0,0C-0.9,5.2-0.7,4.1-0.7,3c0-2.9-1-5.7-2.9-7.9
			c0,0-0.1,0-0.1,0c-0.1,0-0.1,0-0.2,0C-4.1-5-4.2-5-4.4-5.1c-0.1,0-0.1,0-0.2-0.1c-0.2-0.1-0.3-0.1-0.5-0.2c0,0-0.1,0-0.1,0
			c-0.2-0.1-0.5-0.2-0.7-0.3C-7.7-6.2-10-7-12.7-7l0,1c0,1.7-1.3,3-3,3c-0.3,0-0.5,0.1-0.7,0.3c-0.2,0.2-0.3,0.4-0.3,0.7v2
			c0,1.7-1.3,3-3,3c-0.8,0-1.6-0.3-2.1-0.9c-0.6-0.5-0.9-1.3-0.9-2.1v-3.1c-0.1,0-0.2-0.1-0.3-0.1c-1.1,1.9-1.7,4-1.7,6.2
			C-24.7,4.2-24.5,5.3-24.2,6.4C-24.2,6.4-24.2,6.4-24.2,6.4z"/>
		<path class="st4" d="M-15.7,17h9v2l-9,0V17z"/>
		<path class="st5" d="M-22.8-5.3c0.3,0.2,0.7,0.3,1.1,0.3c0.6,0,1,0.4,1,1l0,4c0,0.3,0.1,0.5,0.3,0.7C-20.2,0.9-20,1-19.7,1
			c0.6,0,1-0.4,1-1v-2c0-0.8,0.3-1.6,0.9-2.1c0.5-0.6,1.3-0.9,2.1-0.9c0.6,0,1-0.4,1-1v-2c0-0.5,0.4-1,0.9-1c0.3,0,0.7,0,1.1,0
			c3.1,0,5.6,0.9,7.4,1.6c0.9,0.3,1.7,0.6,2.2,0.6c0.1,0,0.2,0,0.2,0c0,0,0.2-0.2,0.2-1.1c-0.1-0.2-0.7-0.6-1-0.7
			C-4-8.9-4.2-9-4.4-9.2L-7-10.1c-0.5-0.2-0.8-0.7-0.6-1.3c0.2-0.5,0.7-0.8,1.3-0.6l1.3,0.4c-1-3.2-4.1-5.5-7.6-5.5
			c-3.7,0-6.9,2.5-7.7,6h2.7c0.6,0,1,0.4,1,1s-0.4,1-1,1l-3.9,0c-0.9,0-1.7,0.5-1.9,1.3C-24-6.6-23.4-5.7-22.8-5.3z"/>
		<path class="st4" d="M-25.7,18c0,0.6,0.4,1,1,1v-2c-0.3,0-0.5,0.1-0.7,0.3C-25.6,17.5-25.7,17.7-25.7,18z"/>
		<path class="st4" d="M-17.2,25.9l-1.8,1.8l1.3,3.8l0.6,0.6l3.1-3.1L-17.2,25.9z"/>
		<path class="st4" d="M-16.6,21c-0.1,0.1-0.1,0.1-0.2,0.2c-0.1,0.1-0.2,0.2-0.4,0.3c-0.1,0-0.1,0.1-0.2,0.1
			c-0.1,0.1-0.3,0.1-0.5,0.2c-0.1,0-0.1,0.1-0.2,0.1c-0.1,0-0.2,0-0.3,0.1l1.1,1.1l2.1-2.1L-16.6,21C-16.5,21-16.5,21-16.6,21z"/>
		<path class="st4" d="M-0.7,17l0,2c0.3,0,0.5-0.1,0.7-0.3c0.2-0.2,0.3-0.4,0.3-0.7C0.3,17.4-0.2,17-0.7,17z"/>
		<path class="st5" d="M-0.7,14.7c0.1-0.1,0.3-0.2,0.4-0.3C0.1,14,0.3,13.5,0.3,13c0-0.6-0.3-1.2-0.7-1.5c-0.3-0.2-0.4-0.6-0.3-1
			c0-0.2,0.1-0.3,0.1-0.5c0-0.5-0.2-1.1-0.6-1.4C-1.6,8.3-2,8.1-2.3,8c-0.1,0-0.3,0-0.4,0c-1.1,0-2,0.9-2,2c0,0.6-0.4,1-1,1l-10.1,0
			c-0.2,0.8-0.6,1.6-1.1,2.3c-0.2,0.2-0.5,0.3-0.8,0.3c-0.2,0-0.5-0.1-0.7-0.2c-0.4-0.4-0.5-1-0.1-1.4c0.5-0.5,0.8-1.3,0.8-2
			c0-1.7-1.3-3-3-3c-1.2,0-2.4,0.8-2.8,1.9c-0.1,0.3-0.2,0.7-0.2,1.1c0.1,0.5-0.2,1-0.7,1.1c-0.3,0.1-0.5,0.2-0.7,0.5
			c-0.4,0.4-0.6,0.9-0.6,1.4s0.2,1,0.6,1.4c0.4,0.4,0.9,0.6,1.4,0.6c0.6,0,1,0.4,1,1v4v4c0,0.3,0.1,0.6,0.4,0.8
			c0.1,0.1,0.4,0.3,0.8,0.2c0.1,0,0.2,0,0.3-0.1c0.3-0.2,0.5-0.6,0.5-1V21v-2c0-0.6,0.4-1,1-1s1,0.4,1,1v1c0.4,0,0.7-0.2,0.9-0.5
			c0,0,0,0,0,0c0.1-0.1,0.1-0.3,0.1-0.5v-3c0-0.6,0.4-1,1-1l11,0c0.6,0,1,0.4,1,1l0,4c0,0.3,0.1,0.5,0.3,0.7
			c0.2,0.2,0.6,0.3,0.9,0.3c0.4-0.1,0.8-0.5,0.8-1c0,0,0-0.1,0-0.1v0l0-3.9l0-2c0-0.6,0.4-1,1-1s1,0.4,1,1L-0.7,14.7z M-18.8,16.4
			c0,0.1-0.1,0.2-0.2,0.3c-0.1,0.1-0.2,0.2-0.3,0.2s-0.2,0.1-0.4,0.1s-0.3,0-0.4-0.1s-0.2-0.1-0.3-0.2c-0.1-0.1-0.2-0.2-0.2-0.3
			c-0.1-0.1-0.1-0.2-0.1-0.4c0-0.3,0.1-0.5,0.3-0.7c0.2-0.2,0.6-0.3,0.9-0.3c0.1,0,0.1,0,0.2,0.1c0.1,0,0.1,0,0.2,0.1
			c0,0,0.1,0.1,0.2,0.1c0.2,0.2,0.3,0.5,0.3,0.7C-18.7,16.1-18.7,16.2-18.8,16.4z"/>
		<path class="st4" d="M-11.3,29l3.1,3.1l0.6-0.6l1.3-3.8l-1.8-1.8L-11.3,29z"/>
		<path class="st4" d="M-5,22.7l-1.8,1.8l1.1,1.1l0.9-2.8C-4.8,22.8-4.9,22.7-5,22.7C-5,22.7-5,22.7-5,22.7z"/>
		<path class="st4" d="M-10.2,39.1l1.1-3.3l-2.2,2.2L-10.2,39.1z"/>
		<path class="st4" d="M-16.3,35.8l1.1,3.3l1.1-1.1L-16.3,35.8z"/>
		<path class="st4" d="M-14.5,41.2l0.2,0.6c0.2,0.8,0.9,1.2,1.6,1.2s1.4-0.5,1.6-1.2l0.2-0.6l-1.8-1.8L-14.5,41.2z"/>
	</g>
	
		<g transform="matrix(3.411846160888672, 1.808243751525879, -1.808243751525879, 3.411846160888672, 204.68472290039062, 30.137897491455078)">
		<path class="st6" d="M1.2,15.7C1.9,14.9,2.3,14,2.3,13c0-1-0.4-1.9-1-2.7c0-0.1,0-0.2,0-0.3c0-0.9-0.3-1.7-0.8-2.4
			C1,6.1,1.3,4.6,1.3,3c0-3-1-6-2.8-8.4C-1-5.9-0.7-6.7-0.7-8c0-1.2-1.2-1.9-1.9-2.4c-0.1,0-0.1-0.1-0.2-0.1
			c-0.7-4.9-4.9-8.5-9.9-8.5c-4.8,0-8.9,3.4-9.8,8.1c-1.4,0.3-2.5,1.2-3,2.6c-0.5,1.5-0.1,3,0.8,4C-26-2.1-26.7,0.4-26.7,3
			c0,2,0.4,3.9,1.2,5.6c-0.1,0.3-0.1,0.6-0.2,0.9c-0.3,0.2-0.6,0.4-0.8,0.6c-0.8,0.8-1.2,1.8-1.2,2.8c0,1,0.4,2,1.1,2.7
			c-0.1,0.1-0.1,0.1-0.2,0.2c-0.6,0.6-0.9,1.3-0.9,2.1c0,1.7,1.3,3,3,3v3c0,0.9,0.4,1.7,1.1,2.3c0.5,0.5,1.2,0.7,1.9,0.7
			c0.1,0,0.2,0,0.3,0l2.6,7.6c0,0,0,0,0,0l2.3,6.7c0,0,0,0,0,0l0.3,1c0.5,1.6,1.9,2.6,3.5,2.6s3.1-1.1,3.5-2.6l0.4-1.1c0,0,0,0,0,0
			l2.3-6.7c0,0,0,0,0,0l4-11.8c0.8-0.3,1.4-1,1.7-1.8h0.2c0.8,0,1.6-0.3,2.1-0.9C2,19.5,2.3,18.8,2.3,18C2.3,17.1,1.9,16.2,1.2,15.7
			z M-23.6-7.7c0.3-0.8,1-1.3,1.9-1.3l3.9,0c0.6,0,1-0.4,1-1s-0.4-1-1-1h-2.7c0.9-3.5,4-6,7.7-6c3.5,0,6.6,2.3,7.6,5.5L-6.4-12
			c-0.5-0.2-1.1,0.1-1.3,0.6c-0.2,0.5,0.1,1.1,0.6,1.3l2.6,0.9C-4.2-9-4-8.9-3.7-8.7c0.3,0.2,0.8,0.5,1,0.7c0,0.9-0.2,1.1-0.2,1.1
			c0,0-0.1,0-0.2,0c-0.5,0-1.3-0.3-2.2-0.6C-7.1-8.1-9.6-9-12.7-9c-0.4,0-0.7,0-1.1,0c-0.5,0-0.9,0.5-0.9,1v2c0,0.6-0.4,1-1,1
			c-0.8,0-1.6,0.3-2.1,0.9c-0.6,0.6-0.9,1.3-0.9,2.1v2c0,0.6-0.4,1-1,1c-0.3,0-0.5-0.1-0.7-0.3c-0.2-0.2-0.3-0.4-0.3-0.7l0-4
			c0-0.6-0.4-1-1-1c-0.4,0-0.8-0.1-1.1-0.3C-23.4-5.7-24-6.6-23.6-7.7z M-23-3.2c0.1,0,0.2,0.1,0.3,0.1V0c0,0.8,0.3,1.6,0.9,2.1
			c0.6,0.6,1.3,0.9,2.1,0.9c1.7,0,3-1.3,3-3v-2c0-0.3,0.1-0.5,0.3-0.7C-16.2-2.9-16-3-15.7-3c1.7,0,3-1.3,3-3l0-1
			c2.7,0,5,0.8,6.8,1.4c0.3,0.1,0.5,0.2,0.7,0.3c0,0,0.1,0,0.1,0c0.2,0.1,0.4,0.1,0.5,0.2c0.1,0,0.1,0,0.2,0.1C-4.2-5-4.1-5-3.9-4.9
			c0.1,0,0.1,0,0.2,0c0,0,0.1,0,0.1,0c1.9,2.2,2.9,5,2.9,7.9c0,1.1-0.2,2.2-0.5,3.3c0,0,0,0,0,0c-0.2-0.1-0.3-0.1-0.5-0.2
			c-0.1,0-0.1,0-0.2-0.1C-2.2,6-2.4,6-2.7,6c-1.9,0-3.4,1.3-3.9,3l-9.2,0c-0.5-2.3-2.5-4-4.9-4c-0.3,0-0.6,0-0.9,0.1
			c-0.1,0-0.2,0-0.3,0.1c-0.2,0-0.4,0.1-0.6,0.2c-0.1,0-0.2,0.1-0.3,0.1c-0.2,0.1-0.4,0.2-0.6,0.3c0,0-0.1,0.1-0.1,0.1
			C-23.7,6-24,6.2-24.2,6.4c0,0,0,0,0,0c-0.3-1.1-0.5-2.3-0.5-3.4C-24.7,0.8-24.1-1.4-23-3.2z M-25.7,18c0-0.3,0.1-0.5,0.3-0.7
			c0.2-0.2,0.4-0.3,0.7-0.3v2C-25.3,19-25.7,18.5-25.7,18z M-22.4,24.7c-0.2-0.2-0.4-0.5-0.4-0.8v-4v-4c0-0.6-0.4-1-1-1
			c-0.5,0-1-0.2-1.4-0.6c-0.4-0.4-0.6-0.9-0.6-1.4s0.2-1,0.6-1.4c0.2-0.2,0.5-0.4,0.7-0.5c0.5-0.2,0.8-0.6,0.7-1.1
			c0-0.4,0.1-0.7,0.2-1.1C-23.1,7.8-22,7-20.7,7c1.7,0,3,1.3,3,3c0,0.7-0.3,1.4-0.8,2c-0.4,0.4-0.3,1,0.1,1.4
			c0.2,0.2,0.4,0.2,0.7,0.2c0.3,0,0.6-0.1,0.8-0.3c0.6-0.7,1-1.5,1.1-2.3l10.1,0c0.6,0,1-0.4,1-1c0-1.1,0.9-2,2-2c0.1,0,0.3,0,0.4,0
			c0.4,0.1,0.7,0.2,1,0.5c0.4,0.4,0.6,0.9,0.6,1.4c0,0.2,0,0.3-0.1,0.5c-0.1,0.4,0.1,0.7,0.3,1C0,11.8,0.3,12.4,0.3,13
			c0,0.5-0.2,1-0.6,1.4c-0.1,0.1-0.3,0.2-0.4,0.3l0-0.7c0-0.6-0.4-1-1-1s-1,0.4-1,1l0,2l0,3.9v0c0,0,0,0.1,0,0.1c0,0.5-0.4,1-0.8,1
			c-0.3,0.1-0.7,0-0.9-0.3c-0.2-0.2-0.3-0.4-0.3-0.7l0-4c0-0.6-0.4-1-1-1l-11,0c-0.6,0-1,0.4-1,1v3c0,0.2,0,0.3-0.1,0.5c0,0,0,0,0,0
			c-0.2,0.3-0.5,0.5-0.9,0.5v-1c0-0.6-0.4-1-1-1s-1,0.4-1,1v2v2.9c0,0.4-0.2,0.8-0.5,1c-0.1,0.1-0.2,0.1-0.3,0.1
			C-21.9,25-22.2,24.8-22.4,24.7z M-10.2,39.1l-1.1-1.1l2.2-2.2L-10.2,39.1z M-17.8,31.5l-1.3-3.8l1.8-1.8l3.1,3.1l-3.1,3.1
			L-17.8,31.5z M-18.8,24.4C-18.8,24.4-18.8,24.4-18.8,24.4l0.1,0.1l-0.2,0.2c0,0,0-0.1,0-0.1C-18.8,24.5-18.8,24.5-18.8,24.4z
			 M-15.8,24.5l3.1-3.1l3.1,3.1l-3.1,3.1L-15.8,24.5z M-10.3,21l3.8,0c0,0,0,0,0,0.1c0,0.1,0.1,0.1,0.1,0.2c0,0,0,0,0,0l-1.8,1.8
			L-10.3,21z M-6.7,19l-9,0v-2h9V19z M-17.8,21.8c0.2-0.1,0.3-0.1,0.5-0.2c0.1,0,0.1-0.1,0.2-0.1c0.1-0.1,0.3-0.2,0.4-0.3
			c0.1-0.1,0.1-0.1,0.2-0.2c0,0,0.1,0,0.1-0.1h1.4l-2.1,2.1l-1.1-1.1c0.1,0,0.2,0,0.3-0.1C-17.9,21.9-17.9,21.8-17.8,21.8z
			 M-16.3,35.8l2.2,2.2l-1.1,1.1L-16.3,35.8z M-15.8,33.5l3.1-3.1l3.1,3.1l-3.1,3.1L-15.8,33.5z M-7.7,31.5l-0.6,0.6l-3.1-3.1
			l3.1-3.1l1.8,1.8L-7.7,31.5z M-6.8,24.5l1.8-1.8c0,0,0,0,0,0c0.1,0,0.2,0.1,0.3,0.1l-0.9,2.8L-6.8,24.5z M-12.7,43
			c-0.7,0-1.4-0.5-1.6-1.2l-0.2-0.6l1.8-1.8l1.8,1.8l-0.2,0.6C-11.3,42.5-12,43-12.7,43z M0,18.7C-0.2,18.9-0.4,19-0.7,19l0-2
			c0.6,0,1,0.4,1,1C0.3,18.2,0.2,18.5,0,18.7z"/>
		<path class="st6" d="M-20.4,16.7c0.1,0.1,0.2,0.2,0.3,0.2s0.2,0.1,0.4,0.1s0.3,0,0.4-0.1s0.2-0.1,0.3-0.2c0.1-0.1,0.2-0.2,0.2-0.3
			s0.1-0.2,0.1-0.4c0-0.3-0.1-0.5-0.3-0.7c0,0-0.1-0.1-0.2-0.1c-0.1,0-0.1-0.1-0.2-0.1c-0.1,0-0.1,0-0.2-0.1c-0.3-0.1-0.7,0-0.9,0.3
			c-0.2,0.2-0.3,0.5-0.3,0.7c0,0.1,0,0.3,0.1,0.4C-20.6,16.5-20.5,16.6-20.4,16.7z"/>
	</g>
</g>
</svg>
